<?xml version="1.0" encoding="UTF-8"?>
<svg fill="none" viewBox="0 0 58 58" xmlns="http://www.w3.org/2000/svg">
<path d="m2.2958 48.333v-5.6791c0-1.4097 0.3625-2.6886 1.0875-3.8365s1.7319-2.0038 3.0208-2.5677c2.9403-1.2889 5.5885-2.2153 7.9448-2.7792 2.3562-0.5638 4.7829-0.8458 7.2802-0.8458 2.4972 0 4.9139 0.282 7.25 0.8458 2.3361 0.5639 4.9743 1.4903 7.9146 2.7792 1.2888 0.5639 2.3059 1.4198 3.051 2.5677s1.1177 2.4268 1.1177 3.8365v5.6791h-38.667zm42.292 0v-5.6791c0-2.5375-0.6444-4.6219-1.9333-6.2531-1.2889-1.6313-2.9806-2.9504-5.075-3.9573 2.7791 0.3222 5.3972 0.7955 7.8541 1.4198 2.457 0.6243 4.4507 1.3392 5.9813 2.1447 1.3292 0.7653 2.3764 1.7119 3.1417 2.8396 0.7652 1.1278 1.1479 2.3966 1.1479 3.8063v5.6791h-11.117zm-22.958-19.394c-2.6584 0-4.8334-0.8458-6.525-2.5375-1.6917-1.6917-2.5375-3.8667-2.5375-6.525s0.8458-4.8333 2.5375-6.525c1.6916-1.6917 3.8666-2.5375 6.525-2.5375 2.6583 0 4.8333 0.8458 6.525 2.5375 1.6916 1.6917 2.5375 3.8667 2.5375 6.525s-0.8459 4.8333-2.5375 6.525c-1.6917 1.6917-3.8667 2.5375-6.525 2.5375zm21.75-9.0625c0 2.6583-0.8459 4.8333-2.5375 6.525-1.6917 1.6917-3.8667 2.5375-6.525 2.5375-0.4431 0-0.9365-0.0302-1.4802-0.0906-0.5438-0.0604-1.0372-0.1712-1.4802-0.3323 0.9666-1.007 1.7017-2.2455 2.2052-3.7156 0.5034-1.4702 0.7552-3.1115 0.7552-4.924s-0.2518-3.4135-0.7552-4.8031c-0.5035-1.3896-1.2386-2.6684-2.2052-3.8365 0.443-0.1208 0.9364-0.2215 1.4802-0.3021 0.5437-0.0805 1.0371-0.1208 1.4802-0.1208 2.6583 0 4.8333 0.8458 6.525 2.5375 1.6916 1.6917 2.5375 3.8667 2.5375 6.525zm-37.458 24.831h31.417v-2.0541c0-0.6445-0.1913-1.2688-0.574-1.8729-0.3826-0.6042-0.8559-1.0271-1.4197-1.2688-2.9-1.2889-5.3368-2.1548-7.3105-2.5979-1.9736-0.4431-4.1083-0.6646-6.4041-0.6646-2.2959 0-4.4407 0.2215-6.4344 0.6646-1.9938 0.4431-4.4406 1.309-7.3406 2.5979-0.56389 0.2417-1.0271 0.6646-1.3896 1.2688-0.3625 0.6041-0.54375 1.2284-0.54375 1.8729v2.0541zm15.708-19.394c1.5708 0 2.8698-0.5135 3.8968-1.5406 1.0271-1.0271 1.5407-2.3261 1.5407-3.8969s-0.5136-2.8698-1.5407-3.8969c-1.027-1.0271-2.326-1.5406-3.8968-1.5406-1.5709 0-2.8698 0.5135-3.8969 1.5406s-1.5406 2.3261-1.5406 3.8969 0.5135 2.8698 1.5406 3.8969 2.326 1.5406 3.8969 1.5406z" fill="#7F423D"/>
</svg>
