<?xml version="1.0" encoding="UTF-8"?>
<svg fill="none" viewBox="0 0 58 58" xmlns="http://www.w3.org/2000/svg">
<path d="m27.671 53.106c-3.1819-0.1611-6.1625-0.9063-8.9416-2.2354-2.7792-1.3292-5.1959-3.0712-7.25-5.2261-2.0542-2.1548-3.6754-4.6621-4.8636-7.5219-1.1882-2.8597-1.7823-5.9007-1.7823-9.1229 0-3.343 0.63437-6.4847 1.9031-9.425s2.9906-5.4979 5.1656-7.6729c2.175-2.175 4.7326-3.8969 7.6729-5.1656s6.0819-1.9031 9.425-1.9031c6.0014 0 11.217 1.8931 15.648 5.6792 4.4306 3.7861 7.1493 8.5389 8.1563 14.258h-3.6855c-0.6847-3.3834-2.1145-6.4042-4.2895-9.0625-2.175-2.6584-4.8938-4.6521-8.1563-5.9813v1.0875c0 1.4097-0.4833 2.6382-1.45 3.6854s-2.1548 1.5709-3.5646 1.5709h-5.2562v5.2562c0 0.6847-0.2719 1.2486-0.8156 1.6917-0.5438 0.443-1.158 0.6646-1.8428 0.6646h-5.0145v5.3166h6.6458v7.5521h-4.0479l-12.325-12.325c-0.20139 0.8056-0.34236 1.601-0.42292 2.3865-0.08055 0.7854-0.12083 1.5809-0.12083 2.3864 0 5.4375 1.8327 10.13 5.4979 14.077 3.6653 3.9472 8.2369 6.0819 13.715 6.4042v3.625zm23.683-1.5709-8.0959-8.0958c-0.8458 0.6042-1.7621 1.0674-2.7489 1.3896s-2.0038 0.4833-3.0511 0.4833c-2.8597 0-5.2864-0.9969-7.2802-2.9906-1.9937-1.9938-2.9906-4.4205-2.9906-7.2802s0.9969-5.2865 2.9906-7.2802c1.9938-1.9938 4.4205-2.9906 7.2802-2.9906 2.8598 0 5.2865 0.9968 7.2802 2.9906 1.9938 1.9937 2.9907 4.4205 2.9907 7.2802 0 1.0472-0.1712 2.0642-0.5136 3.051-0.3423 0.9868-0.7955 1.9233-1.3594 2.8094l8.0959 8.0354-2.5979 2.5979zm-13.896-9.8479c1.8528 0 3.4236-0.6444 4.7125-1.9333s1.9334-2.8597 1.9334-4.7125-0.6445-3.4236-1.9334-4.7125-2.8597-1.9333-4.7125-1.9333c-1.8527 0-3.4236 0.6444-4.7125 1.9333s-1.9333 2.8597-1.9333 4.7125 0.6444 3.4236 1.9333 4.7125 2.8598 1.9333 4.7125 1.9333z" fill="#7F423D"/>
</svg>
